TITLE ""
FILE "P1Q_t_0878-0887.mp3" MP3
  TRACK 01 AUDIO
    TITLE "P1Q_t_0878-0887_01"
    INDEX 01 00:00:00
  TRACK 02 AUDIO
    TITLE "P1Q_t_0878-0887_02"
    INDEX 01 00:00:08
  TRACK 03 AUDIO
    TITLE "P1Q_t_0878-0887_03"
    INDEX 01 00:01:33
  TRACK 04 AUDIO
    TITLE "P1Q_t_0878-0887_04"
    INDEX 01 00:01:55
  TRACK 05 AUDIO
    TITLE "P1Q_t_0878-0887_05"
    INDEX 01 00:04:16
  TRACK 06 AUDIO
    TITLE "P1Q_t_0878-0887_06"
    INDEX 01 00:04:37
  TRACK 07 AUDIO
    TITLE "P1Q_t_0878-0887_07"
    INDEX 01 00:09:07
  TRACK 08 AUDIO
    TITLE "P1Q_t_0878-0887_08"
    INDEX 01 00:09:54
  TRACK 09 AUDIO
    TITLE "P1Q_t_0878-0887_09"
    INDEX 01 00:10:58
  TRACK 10 AUDIO
    TITLE "P1Q_t_0878-0887_10"
    INDEX 01 00:11:06
  TRACK 11 AUDIO
    TITLE "P1Q_t_0878-0887_11"
    INDEX 01 00:13:40
  TRACK 12 AUDIO
    TITLE "P1Q_t_0878-0887_12"
    INDEX 01 00:13:62
  TRACK 13 AUDIO
    TITLE "P1Q_t_0878-0887_13"
    INDEX 01 00:19:49
  TRACK 14 AUDIO
    TITLE "P1Q_t_0878-0887_14"
    INDEX 01 00:20:21
  TRACK 15 AUDIO
    TITLE "P1Q_t_0878-0887_15"
    INDEX 01 00:21:26
  TRACK 16 AUDIO
    TITLE "P1Q_t_0878-0887_16"
    INDEX 01 00:21:48
  TRACK 17 AUDIO
    TITLE "P1Q_t_0878-0887_17"
    INDEX 01 00:24:19
  TRACK 18 AUDIO
    TITLE "P1Q_t_0878-0887_18"
    INDEX 01 00:24:38
  TRACK 19 AUDIO
    TITLE "P1Q_t_0878-0887_19"
    INDEX 01 00:29:73
  TRACK 20 AUDIO
    TITLE "P1Q_t_0878-0887_20"
    INDEX 01 00:30:45
  TRACK 21 AUDIO
    TITLE "P1Q_t_0878-0887_21"
    INDEX 01 00:32:01
  TRACK 22 AUDIO
    TITLE "P1Q_t_0878-0887_22"
    INDEX 01 00:32:22
  TRACK 23 AUDIO
    TITLE "P1Q_t_0878-0887_23"
    INDEX 01 00:34:72
  TRACK 24 AUDIO
    TITLE "P1Q_t_0878-0887_24"
    INDEX 01 00:35:16
  TRACK 25 AUDIO
    TITLE "P1Q_t_0878-0887_25"
    INDEX 01 00:41:41
  TRACK 26 AUDIO
    TITLE "P1Q_t_0878-0887_26"
    INDEX 01 00:42:13
  TRACK 27 AUDIO
    TITLE "P1Q_t_0878-0887_27"
    INDEX 01 00:43:22
  TRACK 28 AUDIO
    TITLE "P1Q_t_0878-0887_28"
    INDEX 01 00:43:45
  TRACK 29 AUDIO
    TITLE "P1Q_t_0878-0887_29"
    INDEX 01 00:46:46
  TRACK 30 AUDIO
    TITLE "P1Q_t_0878-0887_30"
    INDEX 01 00:46:67
  TRACK 31 AUDIO
    TITLE "P1Q_t_0878-0887_31"
    INDEX 01 00:51:16
  TRACK 32 AUDIO
    TITLE "P1Q_t_0878-0887_32"
    INDEX 01 00:51:61
  TRACK 33 AUDIO
    TITLE "P1Q_t_0878-0887_33"
    INDEX 01 00:53:01
  TRACK 34 AUDIO
    TITLE "P1Q_t_0878-0887_34"
    INDEX 01 00:53:22
  TRACK 35 AUDIO
    TITLE "P1Q_t_0878-0887_35"
    INDEX 01 00:55:52
  TRACK 36 AUDIO
    TITLE "P1Q_t_0878-0887_36"
    INDEX 01 00:55:72
  TRACK 37 AUDIO
    TITLE "P1Q_t_0878-0887_37"
    INDEX 01 01:01:39
  TRACK 38 AUDIO
    TITLE "P1Q_t_0878-0887_38"
    INDEX 01 01:02:11
  TRACK 39 AUDIO
    TITLE "P1Q_t_0878-0887_39"
    INDEX 01 01:03:11
  TRACK 40 AUDIO
    TITLE "P1Q_t_0878-0887_40"
    INDEX 01 01:03:34
  TRACK 41 AUDIO
    TITLE "P1Q_t_0878-0887_41"
    INDEX 01 01:05:45
  TRACK 42 AUDIO
    TITLE "P1Q_t_0878-0887_42"
    INDEX 01 01:05:67
  TRACK 43 AUDIO
    TITLE "P1Q_t_0878-0887_43"
    INDEX 01 01:10:74
  TRACK 44 AUDIO
    TITLE "P1Q_t_0878-0887_44"
    INDEX 01 01:11:44
  TRACK 45 AUDIO
    TITLE "P1Q_t_0878-0887_45"
    INDEX 01 01:12:45
  TRACK 46 AUDIO
    TITLE "P1Q_t_0878-0887_46"
    INDEX 01 01:12:67
  TRACK 47 AUDIO
    TITLE "P1Q_t_0878-0887_47"
    INDEX 01 01:16:57
  TRACK 48 AUDIO
    TITLE "P1Q_t_0878-0887_48"
    INDEX 01 01:17:05
  TRACK 49 AUDIO
    TITLE "P1Q_t_0878-0887_49"
    INDEX 01 01:20:37
  TRACK 50 AUDIO
    TITLE "P1Q_t_0878-0887_50"
    INDEX 01 01:21:09
  TRACK 51 AUDIO
    TITLE "P1Q_t_0878-0887_51"
    INDEX 01 01:22:34
  TRACK 52 AUDIO
    TITLE "P1Q_t_0878-0887_52"
    INDEX 01 01:22:55
  TRACK 53 AUDIO
    TITLE "P1Q_t_0878-0887_53"
    INDEX 01 01:25:34
  TRACK 54 AUDIO
    TITLE "P1Q_t_0878-0887_54"
    INDEX 01 01:25:54
  TRACK 55 AUDIO
    TITLE "P1Q_t_0878-0887_55"
    INDEX 01 01:30:21
  TRACK 56 AUDIO
    TITLE "P1Q_t_0878-0887_56"
    INDEX 01 01:30:66
  TRACK 57 AUDIO
    TITLE "P1Q_t_0878-0887_57"
    INDEX 01 01:32:01
  TRACK 58 AUDIO
    TITLE "P1Q_t_0878-0887_58"
    INDEX 01 01:32:22
  TRACK 59 AUDIO
    TITLE "P1Q_t_0878-0887_59"
    INDEX 01 01:34:66
  TRACK 60 AUDIO
    TITLE "P1Q_t_0878-0887_60"
    INDEX 01 01:35:11
  TRACK 61 AUDIO
    TITLE "P1Q_t_0878-0887_61"
    INDEX 01 01:40:73
